<svg xmlns="http://www.w3.org/2000/svg" xmlns:xlink="http://www.w3.org/1999/xlink" width="500" zoomAndPan="magnify" viewBox="0 0 375 374.999991" height="500" preserveAspectRatio="xMidYMid meet" version="1.0"><defs><clipPath id="dc48dfed03"><path d="M 0 30.703125 L 375 30.703125 L 375 344.203125 L 0 344.203125 Z M 0 30.703125 " clip-rule="nonzero"/></clipPath></defs><g clip-path="url(#dc48dfed03)"><path fill="#ffffff" d="M 228.332031 189.785156 L 372.398438 44.84375 C 373.699219 43.546875 374.769531 40.945312 374.769531 39.035156 C 374.769531 34.523438 371.097656 30.78125 366.511719 30.78125 C 364.597656 30.78125 362 31.851562 360.699219 33.226562 L 224.816406 169.910156 L 224.816406 39.339844 C 224.816406 37.355469 224.128906 35.519531 222.90625 34.066406 C 222.371094 33.300781 221.757812 32.691406 221.144531 32.230469 C 220 31.390625 217.859375 30.703125 216.40625 30.703125 C 214.035156 30.703125 211.050781 32.230469 209.675781 34.21875 L 112.410156 171.820312 L 15.140625 34.296875 C 13.84375 32.386719 10.859375 30.933594 8.566406 30.933594 C 3.976562 30.933594 0.308594 34.601562 0.308594 39.113281 C 0.308594 40.488281 0.917969 42.550781 1.761719 43.699219 L 102.390625 186.039062 L 1.683594 328.457031 C 0.84375 329.679688 0.15625 331.820312 0.15625 333.269531 C 0.15625 337.78125 3.824219 341.527344 8.414062 341.527344 C 10.785156 341.527344 13.84375 339.921875 15.21875 338.011719 L 208.375 64.722656 L 208.375 335.945312 C 208.375 340.457031 212.046875 344.203125 216.632812 344.203125 C 221.144531 344.203125 224.894531 340.535156 224.894531 335.945312 L 224.894531 209.355469 L 360.851562 341.757812 C 362.152344 343.054688 364.75 344.125 366.585938 344.125 C 371.097656 344.125 374.84375 340.457031 374.84375 335.871094 C 374.84375 333.960938 373.699219 331.285156 372.320312 329.984375 Z M 228.332031 189.785156 " fill-opacity="1" fill-rule="nonzero"/></g></svg>